:SAMPLES-PER-SECOND 30
:FULLY-SPECIFIED
:DEGREES
67
root  16.8254 39.3877 -36.6012 150.514 -81.4356 -155.312
RightUpLeg  -10.28 -10.5409 5.05603
RightLeg  23.2875 -4.18954 -1.67474
RightFoot  -8.02314 0.0988931 -5.28825
RightToes  1.16414e-010 0 -3.6325e-017
Spine  5.77353 -0.901936 11.7023
Spine1  10.1637 0.355122 -0.799416
HEad  -10.7759 6.08925 -4.89451
LeftShoulder1  8.75393 -12.2628 -48.4653
LeftArm  -8.73728 14.6434 -29.8043
LeftForeArm  27.3903 -11.4228 -5.5034
LeftHand  -0.244104 0.0205437 5.32207
RightShoulder  6.42331 9.81326 41.9706
RightArm  6.04083 -9.36682 31.4476
RightForeArm  -6.52459 25.4342 5.69859
RightHand  -1.29473 3.02719 -17.9606
LeftUpLeg  -14.1123 5.64982 4.11244
LeftLeg  61.2869 3.52841 7.55794
LeftFoot  2.39917 0.244672 -2.14927
LeftToes  2.00086e-010 -2.05915e-011 4.26721e-011
68
root  15.2424 39.7058 -36.7837 158.334 -80.5715 -163.121
RightUpLeg  -6.42487 -9.73562 3.28108
RightLeg  21.0241 -3.81789 -0.389408
RightFoot  -9.18886 0.0349719 -5.15312
RightToes  1.16414e-010 0 -3.6325e-017
Spine  5.31248 -0.0752418 11.5868
Spine1  10.1321 1.44896 -2.11536
HEad  -10.0184 5.60278 -5.24759
LeftShoulder1  8.62433 -12.1449 -48.1042
LeftArm  -9.1138 16.7162 -29.8459
LeftForeArm  26.4741 -11.5649 -5.36954
LeftHand  -0.244104 0.0205437 5.32207
RightShoulder  6.50855 10.0057 41.9182
RightArm  6.7672 -7.91242 31.8056
RightForeArm  -3.7008 29.9884 6.73716
RightHand  -1.1454 2.18421 -17.6443
LeftUpLeg  -17.6525 6.13119 3.00568
LeftLeg  55.7455 3.79559 6.48722
LeftFoot  0.583607 0.162607 -1.60196
LeftToes  2.00086e-010 -2.05915e-011 4.26721e-011
69
root  13.6856 39.9367 -36.9205 164.169 -79.3337 -168.967
RightUpLeg  -2.75516 -9.03968 1.65328
RightLeg  18.8149 -3.01035 0.762905
RightFoot  -10.2772 -0.0244909 -4.8129
RightToes  1.16414e-010 0 -3.6325e-017
Spine  5.07494 0.673921 11.6926
Spine1  10.0193 2.48282 -3.63005
HEad  -9.74423 5.56416 -5.82265
LeftShoulder1  8.58754 -12.0686 -48.1334
LeftArm  -9.1259 18.8432 -29.5247
LeftForeArm  25.3626 -12.4098 -5.18007
LeftHand  -0.244104 0.0205437 5.32207
RightShoulder  6.5766 10.1409 41.9384
RightArm  7.74935 -6.46586 31.8841
RightForeArm  -2.19051 34.559 7.87149
RightHand  -1.03318 1.45635 -17.5845
LeftUpLeg  -19.9902 7.24255 1.98276
LeftLeg  47.4787 4.12529 5.22277
LeftFoot  -1.1293 0.203013 -2.21294
LeftToes  2.00086e-010 -2.05915e-011 4.26721e-011
70
root  12.1501 40.0132 -37.0134 166.656 -77.949 -171.635
RightUpLeg  0.566038 -8.70102 0.479001
RightLeg  17.5202 -1.90139 1.44475
RightFoot  -11.356 -0.077572 -4.44492
RightToes  1.16414e-010 0 -3.6325e-017
Spine  5.16127 1.27747 12.3243
Spine1  9.96911 3.43809 -5.16791
HEad  -10.1482 5.80563 -6.24464
LeftShoulder1  8.57963 -12.0405 -48.1762
LeftArm  -9.03923 20.6912 -29.2687
LeftForeArm  24.662 -13.2346 -5.00037
LeftHand  -0.244104 0.0205437 5.32207
RightShoulder  6.61157 10.2057 41.9635
RightArm  8.54046 -4.97935 31.9435
RightForeArm  -1.58906 38.5419 9.02365
RightHand  -1.01557 1.20556 -17.9194
LeftUpLeg  -20.8853 9.42754 1.14178
LeftLeg  36.7904 4.39941 3.88469
LeftFoot  -1.86089 0.304331 -3.52155
LeftToes  2.00086e-010 -2.05915e-011 4.26721e-011
71
root  10.5885 39.9805 -37.0912 165.713 -76.7175 -171.003
RightUpLeg  3.96644 -8.31684 -0.0474013
RightLeg  16.4861 -1.24863 1.75996
RightFoot  -12.3643 -0.121304 -4.19308
RightToes  1.16414e-010 0 -3.6325e-017
Spine  5.17953 1.70988 13.5372
Spine1  10.1896 4.27467 -6.76834
HEad  -10.9297 6.23385 -6.35686
LeftShoulder1  8.45264 -11.939 -47.7686
LeftArm  -9.15909 22.2286 -29.4462
LeftForeArm  24.2934 -13.9126 -4.81265
LeftHand  -0.244104 0.0205437 5.32207
RightShoulder  6.63917 10.2576 41.9812
RightArm  8.9196 -3.63313 32.1592
RightForeArm  -1.0251 41.4772 9.96337
RightHand  -1.0541 1.32732 -18.2621
LeftUpLeg  -20.5832 14.5769 -0.200073
LeftLeg  24.3463 3.47626 2.4474
LeftFoot  -0.653866 0.40752 -4.31553
LeftToes  2.00086e-010 -2.05915e-011 4.26721e-011
72
root  8.98306 39.8675 -37.153 162.22 -75.9613 -167.866
RightUpLeg  7.77166 -8.10476 -0.187943
RightLeg  15.0692 -1.13839 2.09524
RightFoot  -13.5855 -0.1579 -3.42422
RightToes  1.16414e-010 0 -3.6325e-017
Spine  4.83885 1.91402 15.0414
Spine1  10.7803 4.85948 -8.26942
HEad  -11.3978 6.94271 -6.73982
LeftShoulder1  8.25861 -11.7526 -47.2336
LeftArm  -9.32716 23.6996 -29.7518
LeftForeArm  23.7365 -14.9357 -4.55708
LeftHand  -0.244104 0.0205437 5.32207
RightShoulder  6.66671 10.3255 41.9458
RightArm  9.02294 -2.62741 32.4346
RightForeArm  -0.367486 43.2305 10.553
RightHand  -1.07934 1.45524 -18.3529
LeftUpLeg  -19.1007 18.3402 -0.630608
LeftLeg  11.1064 6.43014 -0.625005
LeftFoot  2.22827 0.576166 -4.9417
LeftToes  2.00086e-010 -2.05915e-011 4.26721e-011
73
root  7.29498 39.5681 -37.1778 155.773 -75.7604 -161.744
RightUpLeg  11.4039 -8.61485 -0.0588859
RightLeg  14.6698 -1.14501 2.55344
RightFoot  -15.345 -0.160214 -1.66703
RightToes  1.16414e-010 0 -3.6325e-017
Spine  4.06172 1.94388 16.931
Spine1  11.5007 5.0858 -9.21024
HEad  -11.4472 7.76507 -7.40797
LeftShoulder1  8.16062 -11.6081 -47.1163
LeftArm  -9.22131 25.0695 -29.7466
LeftForeArm  23.0224 -16.2977 -4.29173
LeftHand  -0.244104 0.0205437 5.32207
RightShoulder  6.64065 10.329 41.7584
RightArm  9.01646 -2.09424 32.6082
RightForeArm  -0.123236 43.8784 10.7816
RightHand  -1.08973 1.50247 -18.4028
LeftUpLeg  -15.9505 7.81431 4.67653
LeftLeg  -1.27483 25.9912 -8.08108
LeftFoot  4.79681 0.921724 -6.72014
LeftToes  2.00086e-010 -2.05915e-011 4.26721e-011
